# xmcd
#
# Track frame offsets: 
#        150
#        19330
#        38390
#        55302
#        82005
#        102911
#        126520
#        138666
#        165970
#        179025
#        194354
#        212420
#        239469
#
# Disc length: 3484 seconds
#
# Revision: 0
# Processed by: cddbd v1.5.1PL0 Copyright (c) Steve Scherf et al.
# Submitted via: ExactAudioCopy v0.95a5
#
DISCID=b60d9a0d
DTITLE=Nanci Griffith - Cambridge Folk Festival
DYEAR=1992
DGENRE=Country
TTITLE0=It's Just Another Morning Here
TTITLE1=Trouble In The Fields
TTITLE2=Listen To The Radio
TTITLE3=Love At The Five And Dime
TTITLE4=One Blade Shy Of A Sharp Edge
TTITLE5=Across The Great Divide
TTITLE6=Ford Econoline
TTITLE7=Tecumsoh Valley
TTITLE8=Outbound Plane
TTITLE9=Road To Aberdeen
TTITLE10=From A Distance
TTITLE11=It's A Hard Life Wherever You Go
TTITLE12=Cant Help But Wonder Where I'm Bound
EXTD=
EXTT0=
EXTT1=
EXTT2=
EXTT3=
EXTT4=
EXTT5=
EXTT6=
EXTT7=
EXTT8=
EXTT9=
EXTT10=
EXTT11=
EXTT12=
PLAYORDER=
